<svg width="35" height="26" viewBox="0 0 35 26" fill="none" xmlns="http://www.w3.org/2000/svg">
<path d="M5.6167 0.0151367C5.48265 4.27176 6.73645 8.42279 9.18613 11.8677L10.09 10.3195C7.72396 7.35083 6.19612 3.77246 5.6167 0.0151367Z" fill="white"/>
<path d="M10.9746 11.3856L10.0442 12.9793C11.4254 14.6404 13.1276 16.0615 15.0608 17.1902C16.4995 18.0301 17.9995 18.6616 19.516 19.0585L20.4198 17.5103C18.9565 17.0223 17.528 16.3715 16.1793 15.5841C14.1745 14.4748 12.4274 13.0274 10.9746 11.3856Z" fill="white"/>
<path d="M21.264 17.8198L20.3602 19.368C24.7829 20.3626 29.4105 19.7672 33.4376 17.7223C29.5211 18.8549 25.2575 18.9301 21.264 17.8198Z" fill="white"/>
</svg>
