<svg width="23" height="23" viewBox="0 0 23 23" fill="none" xmlns="http://www.w3.org/2000/svg">
<path d="M15.2499 12.25H0.75C0.335999 12.25 0 11.914 0 11.5C0 11.086 0.335999 10.75 0.75 10.75H15.2499C15.6639 10.75 15.9999 11.086 15.9999 11.5C15.9999 11.914 15.6639 12.25 15.2499 12.25Z" fill="white"/>
<path d="M11.25 16.2499C11.0579 16.2499 10.866 16.1771 10.7199 16.03C10.4269 15.7371 10.4269 15.2621 10.7199 14.9689L14.1899 11.4991L10.7199 8.02905C10.4269 7.73608 10.4269 7.26093 10.7199 6.96796C11.0131 6.67499 11.488 6.67499 11.781 6.96796L15.7809 10.9681C16.0739 11.2611 16.0739 11.736 15.7809 12.029L11.781 16.0289C11.634 16.1771 11.4421 16.2499 11.25 16.2499Z" fill="white"/>
<path d="M12 22.5001C7.4489 22.5001 3.43101 19.7621 1.76201 15.5239C1.61003 15.1399 1.79991 14.704 2.18498 14.552C2.56895 14.402 3.00603 14.589 3.158 14.9761C4.59904 18.6351 8.06999 21.0001 12 21.0001C17.2379 21.0001 21.5001 16.7379 21.5001 11.5C21.5001 6.26208 17.2379 1.99993 12 1.99993C8.06999 1.99993 4.59904 4.36492 3.158 8.02392C3.00493 8.411 2.56895 8.59795 2.18498 8.44799C1.79991 8.29601 1.61003 7.86004 1.76201 7.47607C3.43101 3.23791 7.4489 0.499931 12 0.499931C18.065 0.499931 23.0001 5.43499 23.0001 11.5C23.0001 17.565 18.065 22.5001 12 22.5001Z" fill="white"/>
</svg>
