<svg width="34" height="34" viewBox="0 0 34 34" fill="none" xmlns="http://www.w3.org/2000/svg">
<circle cx="17" cy="17" r="17" transform="rotate(90 17 17)" fill="#C84F2B"/>
<g clip-path="url(#clip0)">
<path d="M15.7438 22.1036C15.6006 22.2476 15.4052 22.3279 15.2023 22.3279C14.9994 22.3279 14.804 22.2476 14.6608 22.1036L10.3366 17.7786C9.88781 17.3298 9.88781 16.6021 10.3366 16.1542L10.878 15.6126C11.3269 15.1638 12.0538 15.1638 12.5026 15.6126L15.2023 18.3125L22.4974 11.0172C22.9463 10.5685 23.6739 10.5685 24.1219 11.0172L24.6634 11.5588C25.1122 12.0076 25.1122 12.7352 24.6634 13.1832L15.7438 22.1036Z" fill="white"/>
</g>
<defs>
<clipPath id="clip0">
<rect x="10" y="9" width="15" height="15" fill="white"/>
</clipPath>
</defs>
</svg>
