<svg width="100" height="100" viewBox="0 0 100 100" fill="none" xmlns="http://www.w3.org/2000/svg">
<circle cx="50" cy="50" r="50" transform="rotate(90 50 50)" fill="white"/>
<g clip-path="url(#clip0)">
<path d="M49.8367 73.6633H20.3367C19.5301 73.6633 19 73.1217 19 72.3266V69.6417C19 68.835 19.5416 68.3049 20.3367 68.3049H49.8367C50.6434 68.3049 51.1734 68.8465 51.1734 69.6417V72.3266C51.185 73.1217 50.6434 73.6633 49.8367 73.6633Z" fill="#F6B545"/>
<path d="M44.4783 69.6417H19C19 68.835 19.5416 68.3049 20.3367 68.3049H44.4783V69.6417Z" fill="#FFCB5B"/>
<path d="M44.4783 69.6417V70.9784C44.4783 71.785 43.9367 72.3151 43.1416 72.3151H19C19 73.1217 19.5416 73.6518 20.3367 73.6518H43.1301H49.8367C50.6434 73.6518 51.1734 73.1102 51.1734 72.3151V69.6301L44.4783 69.6417Z" fill="#F19920"/>
<path d="M23.0215 72.3151V70.2985C23.0215 69.8952 22.7565 69.6301 22.3532 69.6301C21.9499 69.6301 21.6848 69.8952 21.6848 70.2985V72.3151" fill="#F19920"/>
<path d="M27.0435 72.3151V70.2985C27.0435 69.8952 26.7785 69.6301 26.3751 69.6301C25.9718 69.6301 25.7068 69.8952 25.7068 70.2985V72.3151" fill="#F19920"/>
<path d="M31.065 72.3151V70.2985C31.065 69.8952 30.8 69.6301 30.3966 69.6301C29.9933 69.6301 29.7283 69.8952 29.7283 70.2985V72.3151" fill="#F19920"/>
<path d="M35.0867 72.3151V70.2985C35.0867 69.8952 34.8217 69.6301 34.4184 69.6301C34.015 69.6301 33.75 69.8952 33.75 70.2985V72.3151" fill="#F19920"/>
<path d="M39.1084 72.3151V70.2985C39.1084 69.8952 38.8434 69.6301 38.4401 69.6301C38.0368 69.6301 37.7717 69.8952 37.7717 70.2985V72.3151" fill="#F19920"/>
<path d="M43.1417 72.3151V70.2985C43.1417 69.8952 42.8766 69.6301 42.4733 69.6301C42.07 69.6301 41.8049 69.8952 41.8049 70.2985V72.3151" fill="#F19920"/>
<path d="M52.5215 68.2932H23.0215C22.2149 68.2932 21.6848 67.7516 21.6848 66.9565V64.2715C21.6848 63.4649 22.2264 62.9348 23.0215 62.9348H52.5215C53.3282 62.9348 53.8583 63.4764 53.8583 64.2715V66.9565C53.8583 67.7631 53.3282 68.2932 52.5215 68.2932Z" fill="#F6B545"/>
<path d="M47.1631 64.2715H21.6848C21.6848 63.4649 22.2264 62.9348 23.0215 62.9348H47.1631V64.2715Z" fill="#FFCB5B"/>
<path d="M47.1631 64.2715V65.6083C47.1631 66.4149 46.6215 66.945 45.8264 66.945H21.6848C21.6848 67.7516 22.2264 68.2817 23.0215 68.2817H45.8149H52.5215C53.3282 68.2817 53.8583 67.7401 53.8583 66.945V64.26L47.1631 64.2715Z" fill="#F19920"/>
<path d="M25.7063 66.9565V64.9398C25.7063 64.5365 25.4413 64.2715 25.038 64.2715C24.6347 64.2715 24.3696 64.5365 24.3696 64.9398V66.9565" fill="#F19920"/>
<path d="M29.7283 66.9565V64.9398C29.7283 64.5365 29.4633 64.2715 29.06 64.2715C28.6566 64.2715 28.3916 64.5365 28.3916 64.9398V66.9565" fill="#F19920"/>
<path d="M33.7498 66.9565V64.9398C33.7498 64.5365 33.4848 64.2715 33.0814 64.2715C32.6781 64.2715 32.4131 64.5365 32.4131 64.9398V66.9565" fill="#F19920"/>
<path d="M37.7715 66.9565V64.9398C37.7715 64.5365 37.5065 64.2715 37.1032 64.2715C36.6999 64.2715 36.4348 64.5365 36.4348 64.9398V66.9565" fill="#F19920"/>
<path d="M41.7933 66.9565V64.9398C41.7933 64.5365 41.5282 64.2715 41.1249 64.2715C40.7216 64.2715 40.4565 64.5365 40.4565 64.9398V66.9565" fill="#F19920"/>
<path d="M45.8147 66.9565V64.9398C45.8147 64.5365 45.5497 64.2715 45.1464 64.2715C44.7431 64.2715 44.478 64.5365 44.478 64.9398V66.9565" fill="#F19920"/>
<path d="M55.2066 57.5652H25.7066C24.9 57.5652 24.3699 57.0236 24.3699 56.2285V53.5435C24.3699 52.7369 24.9115 52.2068 25.7066 52.2068H55.2066C56.0132 52.2068 56.5433 52.7484 56.5433 53.5435V56.2285C56.5433 57.0351 56.0132 57.5652 55.2066 57.5652Z" fill="#F6B545"/>
<path d="M49.8367 53.5435H24.3584C24.3584 52.7369 24.9 52.2068 25.6951 52.2068H49.8367V53.5435Z" fill="#FFCB5B"/>
<path d="M49.8367 53.5435V54.8802C49.8367 55.6869 49.2951 56.2169 48.5 56.2169H24.3584C24.3584 57.0236 24.9 57.5537 25.6951 57.5537H48.5H55.2066C56.0133 57.5537 56.5434 57.0121 56.5434 56.2169V53.532L49.8367 53.5435Z" fill="#F19920"/>
<path d="M28.3917 56.2287V54.2121C28.3917 53.8087 28.1266 53.5437 27.7233 53.5437C27.32 53.5437 27.0549 53.8087 27.0549 54.2121V56.2287" fill="#F19920"/>
<path d="M32.4131 56.2287V54.2121C32.4131 53.8087 32.1481 53.5437 31.7448 53.5437C31.3415 53.5437 31.0764 53.8087 31.0764 54.2121V56.2287" fill="#F19920"/>
<path d="M36.4351 56.2287V54.2121C36.4351 53.8087 36.1701 53.5437 35.7667 53.5437C35.3634 53.5437 35.0984 53.8087 35.0984 54.2121V56.2287" fill="#F19920"/>
<path d="M40.4566 56.2287V54.2121C40.4566 53.8087 40.1916 53.5437 39.7882 53.5437C39.3849 53.5437 39.1199 53.8087 39.1199 54.2121V56.2287" fill="#F19920"/>
<path d="M44.4783 56.2287V54.2121C44.4783 53.8087 44.2133 53.5437 43.81 53.5437C43.4066 53.5437 43.1416 53.8087 43.1416 54.2121V56.2287" fill="#F19920"/>
<path d="M48.5001 56.2287V54.2121C48.5001 53.8087 48.235 53.5437 47.8317 53.5437C47.4284 53.5437 47.1633 53.8087 47.1633 54.2121V56.2287" fill="#F19920"/>
<path d="M52.5215 52.2068H23.0215C22.2149 52.2068 21.6848 51.6652 21.6848 50.8701V48.1851C21.6848 47.3785 22.2264 46.8484 23.0215 46.8484H52.5215C53.3282 46.8484 53.8583 47.39 53.8583 48.1851V50.8701C53.8583 51.6652 53.3282 52.2068 52.5215 52.2068Z" fill="#F6B545"/>
<path d="M47.1631 48.1851H21.6848C21.6848 47.3785 22.2264 46.8484 23.0215 46.8484H47.1631V48.1851Z" fill="#FFCB5B"/>
<path d="M47.1631 48.1851V49.5218C47.1631 50.3285 46.6215 50.8585 45.8264 50.8585H21.6848C21.6848 51.6652 22.2264 52.1953 23.0215 52.1953H45.8149H52.5215C53.3282 52.1953 53.8583 51.6537 53.8583 50.8585V48.1736L47.1631 48.1851Z" fill="#F19920"/>
<path d="M25.7063 50.8585V48.8419C25.7063 48.4386 25.4413 48.1736 25.038 48.1736C24.6347 48.1736 24.3696 48.4386 24.3696 48.8419V50.8585" fill="#F19920"/>
<path d="M29.7283 50.8585V48.8419C29.7283 48.4386 29.4633 48.1736 29.06 48.1736C28.6566 48.1736 28.3916 48.4386 28.3916 48.8419V50.8585" fill="#F19920"/>
<path d="M33.7498 50.8585V48.8419C33.7498 48.4386 33.4848 48.1736 33.0814 48.1736C32.6781 48.1736 32.4131 48.4386 32.4131 48.8419V50.8585" fill="#F19920"/>
<path d="M37.7715 50.8585V48.8419C37.7715 48.4386 37.5065 48.1736 37.1032 48.1736C36.6999 48.1736 36.4348 48.4386 36.4348 48.8419V50.8585" fill="#F19920"/>
<path d="M41.7933 50.8585V48.8419C41.7933 48.4386 41.5282 48.1736 41.1249 48.1736C40.7216 48.1736 40.4565 48.4386 40.4565 48.8419V50.8585" fill="#F19920"/>
<path d="M45.8147 50.8585V48.8419C45.8147 48.4386 45.5497 48.1736 45.1464 48.1736C44.7431 48.1736 44.478 48.4386 44.478 48.8419V50.8585" fill="#F19920"/>
<path d="M49.8367 62.9348H20.3367C19.5301 62.9348 19 62.3932 19 61.5981V58.9131C19 58.1065 19.5416 57.5764 20.3367 57.5764H49.8367C50.6434 57.5764 51.1734 58.118 51.1734 58.9131V61.5981C51.185 62.3932 50.6434 62.9348 49.8367 62.9348Z" fill="#F6B545"/>
<path d="M44.4783 58.9131H19C19 58.1065 19.5416 57.5764 20.3367 57.5764H44.4783V58.9131Z" fill="#FFCB5B"/>
<path d="M44.4783 58.9131V60.2499C44.4783 61.0565 43.9367 61.5866 43.1416 61.5866H19C19 62.3932 19.5416 62.9233 20.3367 62.9233H43.1301H49.8367C50.6434 62.9233 51.1734 62.3817 51.1734 61.5866V58.9016L44.4783 58.9131Z" fill="#F19920"/>
<path d="M23.0215 61.5866V59.57C23.0215 59.1667 22.7565 58.9016 22.3532 58.9016C21.9499 58.9016 21.6848 59.1667 21.6848 59.57V61.5866" fill="#F19920"/>
<path d="M27.0435 61.5866V59.57C27.0435 59.1667 26.7785 58.9016 26.3751 58.9016C25.9718 58.9016 25.7068 59.1667 25.7068 59.57V61.5866" fill="#F19920"/>
<path d="M31.065 61.5866V59.57C31.065 59.1667 30.8 58.9016 30.3966 58.9016C29.9933 58.9016 29.7283 59.1667 29.7283 59.57V61.5866" fill="#F19920"/>
<path d="M35.0867 61.5866V59.57C35.0867 59.1667 34.8217 58.9016 34.4184 58.9016C34.015 58.9016 33.75 59.1667 33.75 59.57V61.5866" fill="#F19920"/>
<path d="M39.1084 61.5866V59.57C39.1084 59.1667 38.8434 58.9016 38.4401 58.9016C38.0368 58.9016 37.7717 59.1667 37.7717 59.57V61.5866" fill="#F19920"/>
<path d="M43.1417 61.5866V59.57C43.1417 59.1667 42.8766 58.9016 42.4733 58.9016C42.07 58.9016 41.8049 59.1667 41.8049 59.57V61.5866" fill="#F19920"/>
<path d="M75.315 64.9402C73.575 63.7302 72.63 61.7251 72.63 59.5818C72.63 51.4001 69.415 43.6218 63.6417 37.8601L57.88 32.0984V28.0767L62.5701 22.1767C62.9734 21.6351 63.2384 20.9667 63.2384 20.2984C63.2384 18.6851 61.9017 17.3484 60.2884 17.3484H55.1951L53.8583 20.0333L51.1734 17.3484H44.7318C43.1185 17.3484 41.7818 18.6851 41.7818 20.2984C41.7818 20.9667 42.0468 21.6351 42.4501 22.1767L47.1402 28.0767V32.0984L41.3785 37.8601C35.6167 43.6218 32.3902 51.4001 32.3902 59.5818C32.3902 61.7251 31.4568 63.7417 29.7052 64.9402C27.9537 66.1386 27.0203 68.1552 27.0203 70.2986C27.0203 72.1769 28.4953 73.6519 30.3736 73.6519H74.6236C76.5019 73.6519 77.9769 72.1769 77.9769 70.2986C78 68.1667 77.0666 66.1501 75.315 64.9402Z" fill="#C97629"/>
<path d="M75.315 64.94C73.575 63.6033 72.6301 61.5867 72.6301 59.4433C72.7684 50.9966 68.8734 43.08 62.9734 37.0533L57.8801 32.0867V28.065L62.5701 22.165C63.3768 21.2316 63.5035 19.8833 62.8352 18.6734C62.2936 17.74 61.2219 17.3367 60.1502 17.3367C59.2168 17.3367 58.6752 18.4083 58.9402 19.215C59.0785 19.48 59.2053 19.8833 59.2053 20.2867C59.2053 20.955 58.9402 21.6234 58.5369 22.165L53.8469 28.065V32.0867H47.1402L45.8035 33.4234H55.1951L60.1617 38.39C65.6584 43.8867 67.8018 51.3999 67.2717 59.04C67.1334 61.3216 68.0783 63.465 69.8184 64.8017C69.9566 64.94 70.0834 65.0667 70.2217 65.0667C72.2383 67.2101 70.4867 70.8285 67.41 70.8285H27.1816C27.4467 72.3035 28.7949 73.5134 30.3967 73.5134H69.2883H72.6416H74.6582C76.5365 73.5134 78.0115 72.0384 78.0115 70.1601V69.8951C78 67.89 76.9283 66.1499 75.315 64.94Z" fill="#B06328"/>
<path d="M58.56 32.0867H46.4834C45.4117 32.0867 44.4668 31.1533 44.4668 30.0701C44.4668 28.9984 45.4002 28.0535 46.4834 28.0535H58.5484C59.6201 28.0535 60.565 28.9869 60.565 30.0701C60.565 31.1533 59.6316 32.0867 58.56 32.0867Z" fill="#FFCB5B"/>
<path d="M46.4835 28.0652H53.1902C53.5935 28.0652 53.8586 28.3302 53.8586 28.7335C53.8586 29.1369 53.5935 29.4019 53.1902 29.4019H46.4835C46.0802 29.4019 45.8152 29.1369 45.8152 28.7335C45.8152 28.3417 46.0917 28.0652 46.4835 28.0652Z" fill="#FFE278"/>
<path d="M58.5598 28.0652H57.8914V29.4019C57.8914 30.2085 57.3498 30.7386 56.5547 30.7386H44.6165C44.8815 31.5453 45.6881 32.0753 46.4948 32.0753H58.5598C59.6315 32.0753 60.5764 31.1419 60.5764 30.0587C60.5764 28.9755 59.6315 28.0652 58.5598 28.0652Z" fill="#F6B545"/>
<path d="M54.5383 30.75H58.56C58.9633 30.75 59.2284 31.015 59.2284 31.4184C59.2284 31.8217 58.9633 32.0867 58.56 32.0867H54.5383C54.135 32.0867 53.87 31.8217 53.87 31.4184C53.8585 31.015 54.135 30.75 54.5383 30.75Z" fill="#F19920"/>
<path d="M53.8698 32.0867H51.1848V42.815H53.8698V32.0867Z" fill="#F6B545"/>
<path d="M51.1848 32.0867V33.4349H52.5215V42.815H53.8582V33.4349V32.0867H51.1848Z" fill="#F19920"/>
<path d="M52.5215 62.9349C58.4466 62.9349 63.2498 58.1317 63.2498 52.2066C63.2498 46.2815 58.4466 41.4783 52.5215 41.4783C46.5964 41.4783 41.7932 46.2815 41.7932 52.2066C41.7932 58.1317 46.5964 62.9349 52.5215 62.9349Z" fill="#F6B545"/>
<path d="M60.7033 45.3616C62.3166 47.2399 63.25 49.5215 63.25 52.195C63.25 58.095 58.4216 62.9233 52.5216 62.9233C49.8367 62.9233 47.555 61.9899 45.6882 60.3766C47.7048 62.785 50.6548 64.26 53.8699 64.26C59.7699 64.26 64.5982 59.4317 64.5982 53.5317C64.5867 50.1899 63.1117 47.2399 60.7033 45.3616Z" fill="#B06328"/>
<path d="M52.5217 61.5984C57.7086 61.5984 61.9133 57.3936 61.9133 52.2068C61.9133 47.02 57.7086 42.8152 52.5217 42.8152C47.3349 42.8152 43.1301 47.02 43.1301 52.2068C43.1301 57.3936 47.3349 61.5984 52.5217 61.5984Z" fill="#FFCB5B"/>
<path d="M61.9133 52.2068C61.9133 57.4384 57.7534 61.5984 52.5217 61.5984V62.9351C58.4217 62.9351 63.2501 58.1068 63.2501 52.2068H61.9133Z" fill="#F19920"/>
<path d="M52.5215 42.815V41.4783C46.6215 41.4783 41.7932 46.3066 41.7932 52.2066H43.1299C43.1415 46.975 47.2899 42.815 52.5215 42.815Z" fill="#FFE27A"/>
</g>
<defs>
<clipPath id="clip0">
<rect x="19" y="16" width="59" height="59" fill="white"/>
</clipPath>
</defs>
</svg>
