<svg width="100" height="100" viewBox="0 0 100 100" fill="none" xmlns="http://www.w3.org/2000/svg">
<circle cx="50" cy="50" r="50" transform="rotate(90 50 50)" fill="white"/>
<g clip-path="url(#clip0)">
<path d="M59.8826 40.2582H58.4537V22.7656C58.4537 21.2445 57.2207 20 55.6881 20C54.1554 20 52.9224 21.233 52.9224 22.7656V40.2582H50.6638C49.8572 40.2582 49.2004 40.9381 49.2004 41.7793C49.2004 43.7152 50.514 45.3977 52.3463 45.7895H41.8715V29.7373C41.8715 28.2393 40.7076 26.9602 39.2095 26.9141C37.6424 26.8564 36.3402 28.1125 36.3402 29.6797V53.9365C36.3402 53.9365 36.3402 60.4242 40.0392 64.8377C40.8689 65.8287 41.3299 67.0732 41.3299 68.3869V78.4123C41.3299 78.735 41.5949 79.0115 41.9291 79.0115H57.8545C58.1771 79.0115 58.4537 78.7465 58.4537 78.4123V68.3523C58.4537 67.4766 58.7648 66.6238 59.341 65.9555C60.6662 64.3998 63.0631 61.1387 63.6968 57.4396C65.0681 49.3617 65.7826 40.2582 59.8826 40.2582Z" fill="#FFC597"/>
<path d="M41.883 46.6307V29.6682C41.883 28.1471 40.65 26.9026 39.1174 26.9026C39.0713 26.9026 39.0252 26.9026 38.9791 26.9026C38.956 26.9026 38.933 26.9026 38.9099 26.9026C38.8869 26.9026 38.8638 26.9026 38.8408 26.9026C38.8062 26.9026 38.7717 26.9141 38.7371 26.9141C38.7256 26.9141 38.714 26.9141 38.7025 26.9141C38.6679 26.9256 38.6219 26.9256 38.5873 26.9372H38.5758C38.5297 26.9487 38.4951 26.9602 38.449 26.9717C38.3222 27.0063 38.184 27.0524 38.0687 27.0985C39.0597 27.5133 39.7627 28.5043 39.7627 29.6452V44.4643C39.7627 47.1723 41.9636 49.3733 44.6717 49.3733C43.116 49.3963 41.883 48.1633 41.883 46.6307Z" fill="#F3A26F"/>
<path d="M59.8827 40.2583H58.4538C63.5817 40.9843 62.8673 49.7075 61.5536 57.4397C60.9198 61.1503 58.5229 64.3999 57.1977 65.9556C56.6331 66.6239 56.3104 67.4767 56.3104 68.3524V79.0001H57.8546C58.1772 79.0001 58.4538 78.7351 58.4538 78.4009V68.3409C58.4538 67.4651 58.7649 66.6124 59.3411 65.944C60.6663 64.3884 63.0632 61.1272 63.6969 57.4282C65.0682 49.3618 65.7827 40.2583 59.8827 40.2583Z" fill="#F3A26F"/>
<path d="M55.6995 20C55.3192 20 54.962 20.0807 54.6278 20.2189C55.6188 20.6338 56.3218 21.6248 56.3218 22.7656V40.2582H58.4651V22.7656C58.4536 21.233 57.2206 20 55.6995 20Z" fill="#F3A26F"/>
<path d="M52.3462 45.778C50.514 45.3862 49.2003 43.7153 49.2003 41.7679C49.2003 40.9267 49.8571 40.2468 50.6638 40.2468H52.9224V36.686C52.9224 35.1649 51.6894 33.9204 50.1567 33.9204C48.6241 33.9204 47.3911 35.1534 47.3911 36.686V48.4169C47.3911 49.938 48.6241 51.1825 50.1567 51.1825C51.6778 51.1825 52.9224 49.9495 52.9224 48.4169V45.9048L52.3462 45.778Z" fill="#FDAD7C"/>
<path d="M50.7906 45.052V48.4168C50.7906 49.5692 50.0877 50.5487 49.0967 50.9635C49.4309 51.1018 49.7881 51.1825 50.1684 51.1825C51.6895 51.1825 52.934 49.9495 52.934 48.4168V45.9047L52.3578 45.778C51.7701 45.6512 51.24 45.3977 50.7906 45.052Z" fill="#E58B5A"/>
<path d="M50.1684 33.9204C49.7881 33.9204 49.4309 34.0011 49.0967 34.1394C50.0877 34.5542 50.7906 35.5452 50.7906 36.686V40.2468H52.934V36.686C52.934 35.1649 51.6895 33.9204 50.1684 33.9204Z" fill="#E58B5A"/>
<path d="M28.6195 63.3858L30.1406 65.9555C30.3134 66.2551 30.6015 66.4625 30.9357 66.5317L33.8396 67.1885C34.7615 67.3959 35.1187 68.5137 34.4965 69.2166L32.5259 71.4522C32.2955 71.7057 32.1918 72.0514 32.2263 72.3856L32.5029 75.3471C32.5951 76.2805 31.6386 76.9719 30.7744 76.6032L28.0433 75.4278C27.7322 75.2895 27.375 75.2895 27.0638 75.4278L24.3328 76.6032C23.4685 76.9719 22.5121 76.292 22.6043 75.3471L22.8808 72.3856C22.9154 72.0399 22.8002 71.7057 22.5812 71.4522L20.5992 69.2166C19.9769 68.5137 20.3341 67.3959 21.256 67.1885L24.1599 66.5317C24.4941 66.451 24.7822 66.2436 24.955 65.9555L26.4761 63.3973C26.9601 62.5791 28.1355 62.5791 28.6195 63.3858Z" fill="#FDBF00"/>
<path d="M32.3647 73.8951C32.0766 74.4367 31.4082 74.7363 30.7744 74.4598L28.0434 73.2844C27.7323 73.1461 27.375 73.1461 27.0639 73.2844L24.3328 74.4598C23.699 74.7363 23.0307 74.4367 22.7426 73.8951L22.6043 75.3471C22.5121 76.2805 23.4686 76.9719 24.3328 76.6031L27.0639 75.4277C27.375 75.2895 27.7323 75.2895 28.0434 75.4277L30.7744 76.6031C31.6387 76.9719 32.5951 76.292 32.503 75.3471L32.3647 73.8951Z" fill="#FF9F00"/>
<path d="M26.6836 31.4543L27.9051 33.5055C28.0434 33.7359 28.2738 33.9088 28.5389 33.9664L30.8666 34.4965C31.6041 34.6578 31.8922 35.5566 31.3967 36.1328L29.818 37.9305C29.6336 38.1379 29.5529 38.4029 29.576 38.6795L29.7949 41.0533C29.8641 41.8023 29.1035 42.3554 28.4121 42.0558L26.2227 41.1109C25.9691 41.0072 25.6811 41.0072 25.4391 41.1109L23.2496 42.0558C22.5582 42.3554 21.7977 41.8023 21.8668 41.0533L22.0742 38.668C22.0973 38.3914 22.0166 38.1264 21.8322 37.9189L20.2535 36.1213C19.758 35.5566 20.0461 34.6578 20.7836 34.4849L23.1113 33.9549C23.3764 33.8972 23.6068 33.7244 23.7451 33.4939L24.9666 31.4428C25.3584 30.7974 26.2918 30.7974 26.6836 31.4543Z" fill="#FDBF00"/>
<path d="M29.6566 39.5208C29.4146 39.9241 28.8961 40.12 28.4121 39.9126L26.2227 38.9677C25.9691 38.864 25.681 38.864 25.4391 38.9677L23.2496 39.9126C22.7656 40.12 22.2471 39.9126 22.0051 39.5208L21.8437 41.0534C21.7746 41.8024 22.5352 42.3556 23.2266 42.056L25.416 41.111C25.6695 41.0073 25.9576 41.0073 26.1996 41.111L28.3891 42.056C29.0805 42.3556 29.841 41.8024 29.7719 41.0534L29.6566 39.5208Z" fill="#FF9F00"/>
<path d="M72.3164 60.4473L73.5724 62.5676C73.7222 62.8096 73.9527 62.9825 74.2293 63.0516L76.6377 63.5932C77.3982 63.7661 77.6978 64.6879 77.1793 65.2756L75.5545 67.1309C75.3701 67.3383 75.2779 67.6264 75.3009 67.903L75.5314 70.3575C75.6005 71.1295 74.817 71.7057 74.1025 71.3946L71.8439 70.4151C71.5789 70.2999 71.2908 70.2999 71.0257 70.4151L68.7672 71.3946C68.0527 71.7057 67.2691 71.1295 67.3382 70.3575L67.5687 67.903C67.5918 67.6264 67.4996 67.3383 67.3152 67.1309L65.6904 65.2756C65.1718 64.6879 65.4714 63.7661 66.232 63.5932L68.6404 63.0516C68.917 62.994 69.1589 62.8211 69.2972 62.5676L70.5533 60.4473C70.9451 59.779 71.9246 59.779 72.3164 60.4473Z" fill="#FDBF00"/>
<path d="M75.3931 68.8364C75.1396 69.2512 74.6095 69.4702 74.1025 69.2512L71.8439 68.2717C71.5789 68.1565 71.2908 68.1565 71.0258 68.2717L68.7672 69.2512C68.2601 69.4702 67.7301 69.2512 67.4765 68.8364L67.3383 70.3575C67.2691 71.1295 68.0527 71.7057 68.7672 71.3946L71.0258 70.4151C71.2908 70.2999 71.5789 70.2999 71.8439 70.4151L74.1025 71.3946C74.817 71.7057 75.6006 71.1295 75.5314 70.3575L75.3931 68.8364Z" fill="#FF9F00"/>
<path d="M72.812 25.8999L74.3331 28.4581C74.5059 28.7577 74.794 28.9652 75.1282 29.0343L78.0321 29.6911C78.954 29.8986 79.3112 31.0163 78.689 31.7193L76.7184 33.9548C76.488 34.2083 76.3843 34.554 76.4188 34.8882L76.6954 37.8613C76.7876 38.7947 75.8311 39.4861 74.9669 39.1173L72.2358 37.9419C71.9247 37.8036 71.5675 37.8036 71.2563 37.9419L68.5138 39.1173C67.6495 39.4861 66.6931 38.8062 66.7852 37.8613L67.0618 34.8997C67.0964 34.554 66.9811 34.2199 66.7622 33.9663L64.7917 31.7308C64.1694 31.0279 64.5266 29.9101 65.4485 29.7027L68.3524 29.0458C68.6866 28.9652 68.9747 28.7577 69.1475 28.4697L70.6686 25.9115C71.1526 25.0933 72.328 25.0933 72.812 25.8999Z" fill="#FDBF00"/>
<path d="M76.5571 36.4093C76.269 36.9509 75.6007 37.2505 74.9669 36.9739L72.2358 35.7985C71.9247 35.6603 71.5675 35.6603 71.2563 35.7985L68.5137 36.9854C67.88 37.262 67.2116 36.9624 66.9235 36.4208L66.7852 37.8612C66.693 38.7946 67.6495 39.486 68.5137 39.1173L71.2448 37.9419C71.5559 37.8036 71.9132 37.8036 72.2243 37.9419L74.9553 39.1173C75.8196 39.486 76.7761 38.8062 76.6839 37.8612L76.5571 36.4093Z" fill="#FF9F00"/>
<path d="M44.6371 49.3963C43.116 49.3963 41.8715 48.1633 41.8715 46.6307V38.426C41.8715 36.9049 43.1045 35.6604 44.6371 35.6604C46.1582 35.6604 47.4027 36.8934 47.4027 38.426V46.6307C47.4027 48.1633 46.1697 49.3963 44.6371 49.3963Z" fill="#FDAD7C"/>
<path d="M44.6371 35.6604C44.2568 35.6604 43.8996 35.7411 43.5654 35.8793C44.5564 36.2942 45.2594 37.2852 45.2594 38.426V46.6307C45.2594 47.7831 44.5564 48.7625 43.5654 49.1774C43.8996 49.3157 44.2568 49.3963 44.6371 49.3963C46.1582 49.3963 47.4027 48.1633 47.4027 46.6307V38.426C47.4027 36.9049 46.1697 35.6604 44.6371 35.6604Z" fill="#E58B5A"/>
<path d="M59.5253 47.3682C59.5368 47.3221 59.5483 47.276 59.5483 47.2184C59.6866 45.9508 58.8224 44.7409 56.7712 44.1993L52.3577 43.1391C51.0786 42.8625 50.053 41.9637 49.5575 40.7883C49.3501 41.0534 49.2233 41.3875 49.2233 41.7563C49.2233 43.6922 50.537 45.3747 52.3692 45.7665L57.7968 46.9879L57.1745 49.3963C55.5728 49.9379 50.756 52.0006 48.4052 57.7508C48.2208 58.2002 48.4397 58.7303 48.8892 58.9147C49.0044 58.9608 49.1081 58.9838 49.2233 58.9838C49.569 58.9838 49.9032 58.7764 50.053 58.4307C52.4845 52.4846 58.0733 50.9866 58.131 50.975C58.4421 50.8944 58.6956 50.6524 58.7763 50.3413L59.5368 47.4143C59.5368 47.4028 59.5368 47.4028 59.5368 47.3913C59.5138 47.3797 59.5253 47.3797 59.5253 47.3682Z" fill="#F3A26F"/>
</g>
<defs>
<clipPath id="clip0">
<rect x="20" y="20" width="59" height="59" fill="white"/>
</clipPath>
</defs>
</svg>
