<svg width="17" height="17" viewBox="0 0 17 17" fill="none" xmlns="http://www.w3.org/2000/svg">
<g clip-path="url(#clip0)">
<path d="M7.94575 11.2717L7.94575 0.554348C7.94575 0.248347 8.1941 -3.76069e-08 8.5001 -2.42312e-08C8.8061 -1.08555e-08 9.05444 0.248347 9.05444 0.554348L9.05444 11.2717C9.05444 11.5777 8.8061 11.826 8.5001 11.826C8.1941 11.826 7.94575 11.5777 7.94575 11.2717Z" fill="white"/>
<path d="M4.9892 8.3152C4.9892 8.17323 5.04306 8.03139 5.15174 7.92339C5.36828 7.70685 5.71935 7.70685 5.93603 7.92339L8.5007 10.4882L11.0655 7.92339C11.2821 7.70685 11.6333 7.70685 11.8498 7.92339C12.0663 8.14007 12.0663 8.49114 11.8498 8.70768L8.89318 11.6642C8.67664 11.8807 8.32557 11.8807 8.10903 11.6642L5.15255 8.70768C5.04306 8.599 4.9892 8.45717 4.9892 8.3152Z" fill="white"/>
</g>
<defs>
<clipPath id="clip0">
<rect width="17" height="17" fill="white" transform="translate(17) rotate(90)"/>
</clipPath>
</defs>
</svg>
