<svg width="100" height="100" viewBox="0 0 100 100" fill="none" xmlns="http://www.w3.org/2000/svg">
<circle cx="50" cy="50" r="50" transform="rotate(90 50 50)" fill="white"/>
<g clip-path="url(#clip0)">
<path d="M71.9103 32.311L49.3218 30.1235L46.9506 54.3173L49.3218 75.0001H71.9103V32.311Z" fill="#C3DCE6"/>
<path d="M27.0117 32.311V75.0001H49.3219V30.1235L27.0117 32.311Z" fill="#E1F0F5"/>
<path d="M71.9103 22.0298H49.3218L46.9506 27.3345L49.3218 32.311H71.9103V22.0298Z" fill="#B05819"/>
<path d="M27.0117 22.0298H49.3219V32.311H27.0117V22.0298Z" fill="#CC6F2D"/>
<path d="M35.918 19H39.2578V27.1703H35.918V19Z" fill="#D9E7EC"/>
<path d="M59.6642 19H63.004V27.1703H59.6642V19Z" fill="#C5D3DD"/>
<path d="M51.1364 19H49.3329L48.1417 22.5L49.3329 27.1703H51.1364V19Z" fill="#C5D3DD"/>
<path d="M47.7968 19H49.3331V27.1703H47.7968V19Z" fill="#D9E7EC"/>
<path d="M33.8917 51.561H44.5792V54.8423H33.8917V51.561Z" fill="#AAB8C7"/>
<path d="M33.8917 57.7954H44.5792V61.0767H33.8917V57.7954Z" fill="#AAB8C7"/>
<path d="M33.8917 64.0298H44.5792V67.311H33.8917V64.0298Z" fill="#AAB8C7"/>
<path d="M54.0754 51.561H64.7629V54.8423H54.0754V51.561Z" fill="#8D9CA8"/>
<path d="M54.0754 57.7954H64.7629V61.0767H54.0754V57.7954Z" fill="#8D9CA8"/>
<path d="M54.0754 64.0298H64.7629V67.311H54.0754V64.0298Z" fill="#8D9CA8"/>
<path d="M64.5292 39.1908L62.1691 36.8721L59.7866 39.2127L57.4042 36.8721L55.0441 39.1908L57.4265 41.5314L55.0441 43.8721L57.4042 46.1908L59.7866 43.8502L62.1691 46.1908L64.5292 43.8721L62.1468 41.5314L64.5292 39.1908Z" fill="#F04000"/>
<path d="M38.6455 45.8516L34.6488 41.925L37.009 39.6062L38.6455 41.2141L42.2191 37.7031L44.5793 40.0219L38.6455 45.8516Z" fill="#34E83C"/>
</g>
<defs>
<clipPath id="clip0">
<rect x="21" y="19" width="57" height="56" fill="white"/>
</clipPath>
</defs>
</svg>
