<svg width="100" height="100" viewBox="0 0 100 100" fill="none" xmlns="http://www.w3.org/2000/svg">
<circle cx="50" cy="50" r="50" transform="rotate(90 50 50)" fill="white"/>
<g clip-path="url(#clip0)">
<path d="M35.1689 64.5021V68.8713C35.1689 69.6991 35.8402 70.3703 36.6685 70.3703H63.3672C64.1955 70.3703 64.8667 69.6991 64.8667 68.8713V64.5021C64.8667 58.6172 60.0962 53.8472 54.2118 53.8472H45.8239C39.9395 53.8472 35.1689 58.6172 35.1689 64.5021Z" fill="#8CBAFA"/>
<path d="M54.2117 53.8472H50.8501C56.7345 53.8472 61.5045 58.6177 61.5045 64.5021V68.8713C61.5045 69.6991 60.8333 70.3703 60.0055 70.3703H63.3671C64.1954 70.3703 64.8666 69.6991 64.8666 68.8713V64.5021C64.8666 58.6172 60.0961 53.8472 54.2117 53.8472Z" fill="#5692D8"/>
<path d="M49.6524 48.6283C45.7434 48.8081 42.551 50.8051 42.3098 54.7106C42.1074 57.9927 43.9569 60.8669 46.6971 62.1741C46.9721 62.305 47.2828 62.0975 47.2823 61.7929C47.2823 61.7904 47.2823 61.7883 47.2823 61.7858C47.2823 59.7163 48.5069 58.0385 50.0175 58.0385C51.5281 58.0385 52.7522 59.7163 52.7522 61.7858V61.7929C52.7522 62.0975 53.0629 62.305 53.3378 62.1736C55.9411 60.9318 57.7403 58.2767 57.7403 55.2005C57.7403 50.8142 54.0836 48.4239 49.6524 48.6283Z" fill="#E9E9EA"/>
<path d="M62.4479 23.2526C59.7142 17.1411 53.364 14.8012 46.89 17.1411C41.6683 19.0284 37.6747 17.3224 35.5875 16.126C34.9747 15.7745 34.235 16.1929 34.1202 16.9538C33.3841 21.8276 33.0759 33.8098 39.5585 39.0859H61.679C64.2772 35.9906 70.1893 23.8926 62.4479 23.2526Z" fill="#575B7A"/>
<path d="M62.448 23.2525C59.9423 17.6501 54.3974 15.22 48.5034 16.6561C53.0997 16.5166 57.1618 18.9809 59.1815 23.6513C66.3776 24.2661 61.3714 35.4719 58.7419 39.0858H61.679C64.2773 35.9905 70.1894 23.8925 62.448 23.2525Z" fill="#252D4C"/>
<path d="M44.1494 46.4209V51.7101C44.1494 54.9509 46.7769 57.5783 50.0177 57.5783C53.2585 57.5783 55.8859 54.9509 55.8859 51.7101V46.4209H44.1494Z" fill="#FFD2C0"/>
<path d="M55.8859 51.7101V46.4209H44.1494V51.6738C45.8589 53.047 48.0292 53.8708 50.3928 53.8708H51.3077C52.9165 53.8708 54.4352 53.4876 55.7812 52.8108C55.8492 52.4543 55.8859 52.0867 55.8859 51.7101Z" fill="#EDAA9D"/>
<path d="M62.5428 35.5681H60.4516V33.9663C60.4516 31.6102 59.3614 29.5105 57.6594 28.1398C57.1262 27.7103 56.386 27.6695 55.7984 28.022C54.109 29.0356 52.1321 29.6198 50.0177 29.6198C47.9039 29.6198 45.927 29.0356 44.2371 28.022C43.6499 27.67 42.9097 27.7103 42.376 28.1398C40.674 29.5105 39.5844 31.6102 39.5844 33.9663V35.5681H37.4927C36.113 35.5681 34.9382 36.6406 34.8889 38.0198C34.8375 39.467 35.9956 40.6569 37.4317 40.6569H39.5844V41.6372C39.5844 47.147 44.0508 51.6134 49.5605 51.6134H50.4754C55.9847 51.6134 60.4511 47.147 60.4511 41.6372V40.6569H62.6037C64.0398 40.6569 65.1979 39.467 65.1466 38.0193C65.0977 36.6411 63.9225 35.5681 62.5428 35.5681Z" fill="#FFD2C0"/>
<path d="M43.66 36.0354C43.4666 36.0354 43.2712 35.9775 43.1015 35.8571C42.666 35.5484 42.5633 34.9452 42.8719 34.5096C43.5059 33.6143 44.2199 33.1606 44.9944 33.1606C45.7683 33.1606 46.4823 33.6143 47.1168 34.5096C47.4254 34.9452 47.3227 35.5484 46.8872 35.8571C46.4516 36.1663 45.8478 36.0631 45.5392 35.6275C45.1927 35.1391 44.9944 35.0947 44.9923 35.0942C44.9944 35.0947 44.796 35.1391 44.4495 35.6275C44.2612 35.8934 43.9626 36.0354 43.66 36.0354Z" fill="#252D4C"/>
<path d="M56.376 36.0354C56.0728 36.0354 55.7747 35.8934 55.5859 35.6275C55.24 35.1391 55.0411 35.0947 55.0396 35.0942C55.0411 35.0947 54.8427 35.1391 54.4962 35.6275C54.1876 36.0631 53.5843 36.1663 53.1488 35.8571C52.7132 35.5484 52.61 34.9452 52.9186 34.5096C53.5531 33.6143 54.2671 33.1606 55.0411 33.1606C55.8155 33.1606 56.5295 33.6148 57.1635 34.5096C57.4727 34.9452 57.3694 35.5484 56.9339 35.8576C56.7642 35.9775 56.5688 36.0354 56.376 36.0354Z" fill="#252D4C"/>
<path d="M50.0177 45.4631C47.928 45.4631 46.0121 44.237 45.1364 42.3386C44.9128 41.8537 45.1248 41.2792 45.6092 41.0556C46.0946 40.832 46.6687 41.044 46.8923 41.5289C47.4527 42.744 48.6798 43.5295 50.0177 43.5295C51.3556 43.5295 52.5828 42.744 53.1432 41.5289C53.3668 41.044 53.9413 40.832 54.4262 41.0556C54.9111 41.2792 55.1226 41.8537 54.899 42.3386C54.0234 44.2365 52.1074 45.4631 50.0177 45.4631Z" fill="#252D4C"/>
<path d="M65.1646 82.0001H34.8706C30.1268 82.0001 26.2812 78.1545 26.2812 73.4107C26.2812 68.6668 30.1268 64.8213 34.8706 64.8213H65.1646C69.9085 64.8213 73.754 68.6668 73.754 73.4107C73.754 78.1545 69.9085 82.0001 65.1646 82.0001Z" fill="#ED5176"/>
<path d="M39.7528 75.3663L40.2603 77.5507C40.4351 78.2999 39.6224 78.8906 38.9632 78.4928L37.0432 77.3347C36.7668 77.168 36.4203 77.168 36.1444 77.3347L34.2239 78.4928C33.5653 78.8901 32.7526 78.2999 32.9268 77.5507L33.4349 75.3663C33.5079 75.0516 33.4011 74.7228 33.1569 74.5113L31.462 73.043C30.8804 72.5389 31.1911 71.5837 31.9575 71.5178L34.1922 71.3259C34.5134 71.2982 34.7934 71.0953 34.9193 70.7977L35.7919 68.7322C36.0915 68.0232 37.0961 68.0232 37.3957 68.7322L38.2683 70.7977C38.3942 71.0953 38.6742 71.2982 38.996 71.3259L41.2302 71.5178C41.9965 71.5837 42.3072 72.5389 41.7256 73.043L40.0307 74.5113C39.7865 74.7228 39.6793 75.0516 39.7528 75.3663Z" fill="#FFCD34"/>
<path d="M53.1769 75.3663L53.6849 77.5507C53.8591 78.2999 53.0464 78.8906 52.3873 78.4928L50.4673 77.3347C50.1909 77.168 49.8449 77.168 49.5685 77.3347L47.648 78.4928C46.9893 78.8901 46.1766 78.2999 46.3509 77.5507L46.8589 75.3663C46.9319 75.0516 46.8252 74.7228 46.581 74.5113L44.8861 73.043C44.3045 72.5389 44.6152 71.5837 45.3815 71.5178L47.6163 71.3259C47.9375 71.2982 48.2175 71.0953 48.3434 70.7977L49.2165 68.7322C49.5156 68.0232 50.5202 68.0232 50.8198 68.7322L51.6924 70.7977C51.8183 71.0953 52.0983 71.2982 52.42 71.3259L54.6542 71.5178C55.4206 71.5837 55.7313 72.5389 55.1497 73.043L53.4548 74.5113C53.2106 74.7228 53.1038 75.0516 53.1769 75.3663Z" fill="#FFCD34"/>
<path d="M66.6007 75.3663L67.1088 77.5507C67.283 78.2999 66.4703 78.8906 65.8112 78.4928L63.8912 77.3347C63.6147 77.168 63.2688 77.168 62.9923 77.3347L61.0718 78.4928C60.4132 78.8901 59.6005 78.2999 59.7747 77.5507L60.2828 75.3663C60.3558 75.0516 60.249 74.7228 60.0048 74.5113L58.3099 73.043C57.7288 72.5389 58.039 71.5837 58.8054 71.5178L61.0401 71.3259C61.3614 71.2982 61.6413 71.0953 61.7672 70.7977L62.6404 68.7322C62.9395 68.0232 63.944 68.0232 64.2436 68.7322L65.1163 70.7977C65.2422 71.0953 65.5221 71.2982 65.8439 71.3259L68.0781 71.5178C68.8445 71.5837 69.1552 72.5389 68.5736 73.043L66.8787 74.5113C66.6344 74.7228 66.5277 75.0516 66.6007 75.3663Z" fill="#FFCD34"/>
</g>
<defs>
<clipPath id="clip0">
<rect x="17" y="16" width="66" height="66" fill="white"/>
</clipPath>
</defs>
</svg>
