<svg width="100" height="100" viewBox="0 0 100 100" fill="none" xmlns="http://www.w3.org/2000/svg">
<circle cx="50" cy="50" r="50" transform="rotate(90 50 50)" fill="white"/>
<g clip-path="url(#clip0)">
<path d="M36.6102 66.9126H12.1102C11.4402 66.9126 11 66.472 11 65.8251V63.6407C11 62.9845 11.4498 62.5532 12.1102 62.5532H36.6102C37.2801 62.5532 37.7203 62.9938 37.7203 63.6407V65.8251C37.7299 66.472 37.2801 66.9126 36.6102 66.9126Z" fill="#F6B545"/>
<path d="M32.16 63.6407H11C11 62.9845 11.4498 62.5532 12.1102 62.5532H32.16V63.6407Z" fill="#FFCB5B"/>
<path d="M32.16 63.6407V64.7282C32.16 65.3845 31.7102 65.8157 31.0498 65.8157H11C11 66.472 11.4498 66.9032 12.1102 66.9032H31.0402H36.6102C37.2801 66.9032 37.7203 66.4626 37.7203 65.8157V63.6313L32.16 63.6407Z" fill="#F19920"/>
<path d="M14.3399 65.8157V64.1751C14.3399 63.847 14.1198 63.6313 13.7848 63.6313C13.4499 63.6313 13.2297 63.847 13.2297 64.1751V65.8157" fill="#F19920"/>
<path d="M17.6802 65.8157V64.1751C17.6802 63.847 17.4601 63.6313 17.1251 63.6313C16.7902 63.6313 16.5701 63.847 16.5701 64.1751V65.8157" fill="#F19920"/>
<path d="M21.0201 65.8157V64.1751C21.0201 63.847 20.8 63.6313 20.465 63.6313C20.13 63.6313 19.9099 63.847 19.9099 64.1751V65.8157" fill="#F19920"/>
<path d="M24.3602 65.8157V64.1751C24.3602 63.847 24.14 63.6313 23.8051 63.6313C23.4701 63.6313 23.25 63.847 23.25 64.1751V65.8157" fill="#F19920"/>
<path d="M27.7002 65.8157V64.1751C27.7002 63.847 27.4801 63.6313 27.1452 63.6313C26.8102 63.6313 26.5901 63.847 26.5901 64.1751V65.8157" fill="#F19920"/>
<path d="M31.0499 65.8157V64.1751C31.0499 63.847 30.8297 63.6313 30.4948 63.6313C30.1598 63.6313 29.9397 63.847 29.9397 64.1751V65.8157" fill="#F19920"/>
<path d="M38.8399 62.5437H14.3399C13.67 62.5437 13.2297 62.1031 13.2297 61.4562V59.2718C13.2297 58.6156 13.6795 58.1843 14.3399 58.1843H38.8399C39.5098 58.1843 39.9501 58.625 39.9501 59.2718V61.4562C39.9501 62.1125 39.5098 62.5437 38.8399 62.5437Z" fill="#F6B545"/>
<path d="M34.3897 59.2718H13.2297C13.2297 58.6156 13.6795 58.1843 14.3399 58.1843H34.3897V59.2718Z" fill="#FFCB5B"/>
<path d="M34.3897 59.2718V60.3593C34.3897 61.0156 33.9399 61.4468 33.2795 61.4468H13.2297C13.2297 62.1031 13.6795 62.5343 14.3399 62.5343H33.27H38.8399C39.5098 62.5343 39.9501 62.0937 39.9501 61.4468V59.2625L34.3897 59.2718Z" fill="#F19920"/>
<path d="M16.5696 61.4561V59.8155C16.5696 59.4874 16.3495 59.2717 16.0146 59.2717C15.6796 59.2717 15.4595 59.4874 15.4595 59.8155V61.4561" fill="#F19920"/>
<path d="M19.91 61.4561V59.8155C19.91 59.4874 19.6898 59.2717 19.3549 59.2717C19.0199 59.2717 18.7998 59.4874 18.7998 59.8155V61.4561" fill="#F19920"/>
<path d="M23.2498 61.4561V59.8155C23.2498 59.4874 23.0297 59.2717 22.6947 59.2717C22.3598 59.2717 22.1396 59.4874 22.1396 59.8155V61.4561" fill="#F19920"/>
<path d="M26.5899 61.4561V59.8155C26.5899 59.4874 26.3698 59.2717 26.0348 59.2717C25.6999 59.2717 25.4797 59.4874 25.4797 59.8155V61.4561" fill="#F19920"/>
<path d="M29.93 61.4561V59.8155C29.93 59.4874 29.7099 59.2717 29.3749 59.2717C29.0399 59.2717 28.8198 59.4874 28.8198 59.8155V61.4561" fill="#F19920"/>
<path d="M33.2698 61.4561V59.8155C33.2698 59.4874 33.0497 59.2717 32.7147 59.2717C32.3798 59.2717 32.1597 59.4874 32.1597 59.8155V61.4561" fill="#F19920"/>
<path d="M41.0699 53.8157H16.5699C15.9 53.8157 15.4597 53.375 15.4597 52.7282V50.5438C15.4597 49.8875 15.9095 49.4563 16.5699 49.4563H41.0699C41.7398 49.4563 42.18 49.8969 42.18 50.5438V52.7282C42.18 53.3844 41.7398 53.8157 41.0699 53.8157Z" fill="#F6B545"/>
<path d="M36.6102 50.5438H15.4502C15.4502 49.8875 15.9 49.4563 16.5604 49.4563H36.6102V50.5438Z" fill="#FFCB5B"/>
<path d="M36.6102 50.5438V51.6313C36.6102 52.2875 36.1604 52.7188 35.5 52.7188H15.4502C15.4502 53.3751 15.9 53.8063 16.5604 53.8063H35.5H41.0699C41.7398 53.8063 42.1801 53.3657 42.1801 52.7188V50.5344L36.6102 50.5438Z" fill="#F19920"/>
<path d="M18.7999 52.7283V51.0877C18.7999 50.7596 18.5797 50.5439 18.2448 50.5439C17.9098 50.5439 17.6897 50.7596 17.6897 51.0877V52.7283" fill="#F19920"/>
<path d="M22.1397 52.7283V51.0877C22.1397 50.7596 21.9196 50.5439 21.5846 50.5439C21.2497 50.5439 21.0295 50.7596 21.0295 51.0877V52.7283" fill="#F19920"/>
<path d="M25.48 52.7283V51.0877C25.48 50.7596 25.2599 50.5439 24.925 50.5439C24.59 50.5439 24.3699 50.7596 24.3699 51.0877V52.7283" fill="#F19920"/>
<path d="M28.8199 52.7283V51.0877C28.8199 50.7596 28.5998 50.5439 28.2648 50.5439C27.9298 50.5439 27.7097 50.7596 27.7097 51.0877V52.7283" fill="#F19920"/>
<path d="M32.16 52.7283V51.0877C32.16 50.7596 31.9398 50.5439 31.6049 50.5439C31.2699 50.5439 31.0498 50.7596 31.0498 51.0877V52.7283" fill="#F19920"/>
<path d="M35.5 52.7283V51.0877C35.5 50.7596 35.2799 50.5439 34.945 50.5439C34.61 50.5439 34.3899 50.7596 34.3899 51.0877V52.7283" fill="#F19920"/>
<path d="M38.8399 49.4563H14.3399C13.67 49.4563 13.2297 49.0157 13.2297 48.3688V46.1844C13.2297 45.5282 13.6795 45.0969 14.3399 45.0969H38.8399C39.5098 45.0969 39.9501 45.5375 39.9501 46.1844V48.3688C39.9501 49.0157 39.5098 49.4563 38.8399 49.4563Z" fill="#F6B545"/>
<path d="M34.3897 46.1844H13.2297C13.2297 45.5282 13.6795 45.0969 14.3399 45.0969H34.3897V46.1844Z" fill="#FFCB5B"/>
<path d="M34.3897 46.1844V47.2719C34.3897 47.9282 33.9399 48.3594 33.2795 48.3594H13.2297C13.2297 49.0157 13.6795 49.4469 14.3399 49.4469H33.27H38.8399C39.5098 49.4469 39.9501 49.0063 39.9501 48.3594V46.175L34.3897 46.1844Z" fill="#F19920"/>
<path d="M16.5696 48.3594V46.7188C16.5696 46.3907 16.3495 46.175 16.0146 46.175C15.6796 46.175 15.4595 46.3907 15.4595 46.7188V48.3594" fill="#F19920"/>
<path d="M19.91 48.3594V46.7188C19.91 46.3907 19.6898 46.175 19.3549 46.175C19.0199 46.175 18.7998 46.3907 18.7998 46.7188V48.3594" fill="#F19920"/>
<path d="M23.2498 48.3594V46.7188C23.2498 46.3907 23.0297 46.175 22.6947 46.175C22.3598 46.175 22.1396 46.3907 22.1396 46.7188V48.3594" fill="#F19920"/>
<path d="M26.5899 48.3594V46.7188C26.5899 46.3907 26.3698 46.175 26.0348 46.175C25.6999 46.175 25.4797 46.3907 25.4797 46.7188V48.3594" fill="#F19920"/>
<path d="M29.93 48.3594V46.7188C29.93 46.3907 29.7099 46.175 29.3749 46.175C29.0399 46.175 28.8198 46.3907 28.8198 46.7188V48.3594" fill="#F19920"/>
<path d="M33.2698 48.3594V46.7188C33.2698 46.3907 33.0497 46.175 32.7147 46.175C32.3798 46.175 32.1597 46.3907 32.1597 46.7188V48.3594" fill="#F19920"/>
<path d="M36.6102 58.1843H12.1102C11.4402 58.1843 11 57.7437 11 57.0968V54.9125C11 54.2562 11.4498 53.825 12.1102 53.825H36.6102C37.2801 53.825 37.7203 54.2656 37.7203 54.9125V57.0968C37.7299 57.7437 37.2801 58.1843 36.6102 58.1843Z" fill="#F6B545"/>
<path d="M32.16 54.9124H11C11 54.2562 11.4498 53.825 12.1102 53.825H32.16V54.9124Z" fill="#FFCB5B"/>
<path d="M32.16 54.9125V56C32.16 56.6562 31.7102 57.0875 31.0498 57.0875H11C11 57.7437 11.4498 58.175 12.1102 58.175H31.0402H36.6102C37.2801 58.175 37.7203 57.7343 37.7203 57.0875V54.9031L32.16 54.9125Z" fill="#F19920"/>
<path d="M14.3399 57.0875V55.4468C14.3399 55.1187 14.1198 54.9031 13.7848 54.9031C13.4499 54.9031 13.2297 55.1187 13.2297 55.4468V57.0875" fill="#F19920"/>
<path d="M17.6802 57.0875V55.4468C17.6802 55.1187 17.4601 54.9031 17.1251 54.9031C16.7902 54.9031 16.5701 55.1187 16.5701 55.4468V57.0875" fill="#F19920"/>
<path d="M21.0201 57.0875V55.4468C21.0201 55.1187 20.8 54.9031 20.465 54.9031C20.13 54.9031 19.9099 55.1187 19.9099 55.4468V57.0875" fill="#F19920"/>
<path d="M24.3602 57.0875V55.4468C24.3602 55.1187 24.14 54.9031 23.8051 54.9031C23.4701 54.9031 23.25 55.1187 23.25 55.4468V57.0875" fill="#F19920"/>
<path d="M27.7002 57.0875V55.4468C27.7002 55.1187 27.4801 54.9031 27.1452 54.9031C26.8102 54.9031 26.5901 55.1187 26.5901 55.4468V57.0875" fill="#F19920"/>
<path d="M31.0499 57.0875V55.4468C31.0499 55.1187 30.8297 54.9031 30.4948 54.9031C30.1598 54.9031 29.9397 55.1187 29.9397 55.4468V57.0875" fill="#F19920"/>
<path d="M57.7701 59.8157C56.325 58.8313 55.5402 57.2 55.5402 55.4563C55.5402 48.8 52.8701 42.4719 48.0753 37.7844L43.2902 33.0969V29.825L47.1853 25.025C47.5203 24.5844 47.7404 24.0407 47.7404 23.4969C47.7404 22.1844 46.6302 21.0969 45.2904 21.0969H41.0603L39.9501 23.2813L37.7203 21.0969H32.3705C31.0306 21.0969 29.9205 22.1844 29.9205 23.4969C29.9205 24.0407 30.1406 24.5844 30.4755 25.025L34.3707 29.825V33.0969L29.5855 37.7844C24.8003 42.4719 22.1207 48.8 22.1207 55.4563C22.1207 57.2 21.3455 58.8407 19.8908 59.8157C18.4361 60.7907 17.6609 62.4313 17.6609 64.175C17.6609 65.7032 18.8859 66.9032 20.4458 66.9032H57.1959C58.7558 66.9032 59.9808 65.7032 59.9808 64.175C60 62.4407 59.2248 60.8 57.7701 59.8157Z" fill="#C97629"/>
<path d="M57.7701 59.8155C56.325 58.728 55.5402 57.0874 55.5402 55.3436C55.6551 48.4718 52.4203 42.0311 47.5203 37.128L43.2902 33.0874V29.8155L47.1854 25.0155C47.8553 24.2562 47.9605 23.1593 47.4055 22.1749C46.9557 21.4155 46.0656 21.0874 45.1756 21.0874C44.4004 21.0874 43.9506 21.9593 44.1707 22.6155C44.2855 22.8312 44.3908 23.1593 44.3908 23.4874C44.3908 24.0312 44.1707 24.5749 43.8357 25.0155L39.9406 29.8155V33.0874H34.3707L33.2605 34.1749H41.0604L45.1852 38.2155C49.7502 42.6874 51.5303 48.7999 51.09 55.0155C50.9752 56.8718 51.76 58.6155 53.2051 59.703C53.3199 59.8155 53.4252 59.9186 53.54 59.9186C55.2148 61.6624 53.7602 64.6061 51.2049 64.6061H17.7949C18.015 65.8061 19.1348 66.7905 20.465 66.7905H52.7648H55.5498H57.2246C58.7846 66.7905 60.0096 65.5905 60.0096 64.0624V63.8468C60 62.2155 59.11 60.7999 57.7701 59.8155Z" fill="#B06328"/>
<path d="M43.8549 33.0874H33.8252C32.9352 33.0874 32.1504 32.328 32.1504 31.4468C32.1504 30.5749 32.9256 29.8062 33.8252 29.8062H43.8453C44.7354 29.8062 45.5201 30.5655 45.5201 31.4468C45.5201 32.328 44.7449 33.0874 43.8549 33.0874Z" fill="#FFCB5B"/>
<path d="M33.8253 29.8157H39.3953C39.7302 29.8157 39.9503 30.0313 39.9503 30.3594C39.9503 30.6875 39.7302 30.9032 39.3953 30.9032H33.8253C33.4904 30.9032 33.2703 30.6875 33.2703 30.3594C33.2703 30.0407 33.5 29.8157 33.8253 29.8157Z" fill="#FFE278"/>
<path d="M43.8547 29.8157H43.2996V30.9032C43.2996 31.5594 42.8498 31.9907 42.1895 31.9907H32.2747C32.4948 32.6469 33.1647 33.0782 33.8346 33.0782H43.8547C44.7448 33.0782 45.5295 32.3188 45.5295 31.4375C45.5295 30.5563 44.7448 29.8157 43.8547 29.8157Z" fill="#F6B545"/>
<path d="M40.5148 32H43.8549C44.1898 32 44.41 32.2156 44.41 32.5438C44.41 32.8719 44.1898 33.0875 43.8549 33.0875H40.5148C40.1799 33.0875 39.9598 32.8719 39.9598 32.5438C39.9502 32.2156 40.1799 32 40.5148 32Z" fill="#F19920"/>
<path d="M39.9596 33.0874H37.7297V41.8155H39.9596V33.0874Z" fill="#F6B545"/>
<path d="M37.7297 33.0874V34.1843H38.8399V41.8155H39.95V34.1843V33.0874H37.7297Z" fill="#F19920"/>
<path d="M38.8399 58.1843C43.7607 58.1843 47.7498 54.2766 47.7498 49.4562C47.7498 44.6357 43.7607 40.728 38.8399 40.728C33.9191 40.728 29.9299 44.6357 29.9299 49.4562C29.9299 54.2766 33.9191 58.1843 38.8399 58.1843Z" fill="#F6B545"/>
<path d="M45.6349 43.8875C46.9748 45.4156 47.75 47.2718 47.75 49.4468C47.75 54.2468 43.74 58.1749 38.84 58.1749C36.6101 58.1749 34.7152 57.4156 33.1648 56.1031C34.8396 58.0624 37.2896 59.2624 39.9597 59.2624C44.8597 59.2624 48.8697 55.3343 48.8697 50.5343C48.8601 47.8156 47.6351 45.4156 45.6349 43.8875Z" fill="#B06328"/>
<path d="M38.8401 57.0969C43.1478 57.0969 46.6399 53.6761 46.6399 49.4563C46.6399 45.2365 43.1478 41.8157 38.8401 41.8157C34.5324 41.8157 31.0403 45.2365 31.0403 49.4563C31.0403 53.6761 34.5324 57.0969 38.8401 57.0969Z" fill="#FFCB5B"/>
<path d="M46.6399 49.4563C46.6399 53.7126 43.185 57.0969 38.8401 57.0969V58.1844C43.7401 58.1844 47.7501 54.2563 47.7501 49.4563H46.6399Z" fill="#F19920"/>
<path d="M38.8399 41.8155V40.728C33.9399 40.728 29.9299 44.6562 29.9299 49.4562H31.0401C31.0497 45.1999 34.495 41.8155 38.8399 41.8155Z" fill="#FFE27A"/>
</g>
<path d="M51.4531 29.377H78.5469V60.1592H51.4531V29.377Z" fill="#B46615"/>
<path d="M65 29.377H78.5469V60.1592H65V29.377Z" fill="#874208"/>
<path d="M50.0469 28V61.5362H79.9531V28H50.0469ZM59.0778 58.7822H52.8594V47.483H59.0778V58.7822ZM59.0778 44.7291H52.8594V39.1184H59.0778V44.7291ZM59.0778 36.3645H52.8594V30.7539H59.0778V36.3645ZM68.1097 58.7822H61.8903V47.483H68.1097V58.7822ZM68.1097 44.7291H61.8903V39.1184H68.1097V44.7291ZM68.1097 36.3645H61.8903V30.7539H68.1097V36.3645ZM77.1406 58.7822H70.9222V47.483H77.1406V58.7822ZM77.1406 44.7291H70.9222V39.1184H77.1406V44.7291ZM77.1406 36.3645H70.9222V30.7539H77.1406V36.3645Z" fill="#874208"/>
<path d="M65 28V30.7539H68.1097V36.3645H65V39.1184H68.1097V44.7291H65V47.483H68.1097V58.7822H65V61.5362H79.9531V28L65 28ZM77.1406 58.7822H70.9222V47.483H77.1406V58.7822ZM77.1406 44.7291H70.9222V39.1184H77.1406V44.7291ZM77.1406 36.3645H70.9222V30.7539H77.1406V36.3645Z" fill="#682A00"/>
<path d="M83.2617 58.9713V75H46.7385V58.9713L48.2395 57.0078H81.7607L83.2617 58.9713Z" fill="#FDBF00"/>
<path d="M83.2616 58.9713V75H65V57.0078H81.7606L83.2616 58.9713Z" fill="#FF9F00"/>
<path d="M83.2617 50.4902V58.9714C80.2279 58.9714 80.2279 61.4462 77.182 61.4462C74.136 61.4462 74.136 58.9714 71.0901 58.9714C68.0451 58.9714 68.0451 61.4453 65.0001 61.4462H64.9991C61.9532 61.4462 61.9532 58.9714 58.9082 58.9714C55.8623 58.9714 55.8623 61.4462 52.8163 61.4462C49.7704 61.4462 49.7704 58.9714 46.7385 58.9714V50.4902C49.7704 50.4902 49.7704 52.9651 52.8163 52.9651C55.8623 52.9651 55.8623 50.4902 58.9082 50.4902C61.9532 50.4902 61.9532 52.9651 64.9991 52.9651H65.0001C68.0451 52.9642 68.0451 50.4902 71.0901 50.4902C74.136 50.4902 74.136 52.9651 77.182 52.9651C80.2279 52.9651 80.2279 50.4902 83.2617 50.4902Z" fill="#FFD400"/>
<path d="M83.2616 50.4902V58.9714C80.2278 58.9714 80.2278 61.4462 77.1819 61.4462C74.1359 61.4462 74.1359 58.9714 71.09 58.9714C68.045 58.9714 68.045 61.4453 65 61.4462V52.9651C68.045 52.9642 68.045 50.4902 71.09 50.4902C74.1359 50.4902 74.1359 52.9651 77.1819 52.9651C80.2278 52.9651 80.2278 50.4902 83.2616 50.4902Z" fill="#FDBF00"/>
<defs>
<clipPath id="clip0">
<rect x="11" y="20" width="49" height="48" fill="white"/>
</clipPath>
</defs>
</svg>
