<svg width="100" height="100" viewBox="0 0 100 100" fill="none" xmlns="http://www.w3.org/2000/svg">
<circle cx="50" cy="50" r="50" transform="rotate(90 50 50)" fill="white"/>
<g clip-path="url(#clip0)">
<path d="M44.1939 69.845V73.6004C44.1939 75.0365 43.4945 76.3701 42.3457 77.124L39.5708 78.945H60.4291L57.6542 77.124C56.5054 76.3701 55.806 75.0365 55.806 73.6004V69.845C51.9878 69.845 48.0122 69.845 44.1939 69.845Z" fill="#B1DBFC"/>
<path d="M44.1939 69.845V73.6004C44.1939 75.0365 43.4945 76.3701 42.3457 77.124L39.5708 78.945H46.3031L46.3616 78.9067C47.5104 78.1528 48.2099 76.8192 48.2099 75.3831V72.7832C48.2099 72.145 48.7357 71.6277 49.3844 71.6277H55.806V69.845H44.1939Z" fill="#8BCAFF"/>
<path d="M62.3709 78.8132H37.629C36.9401 78.8132 36.3816 79.3627 36.3816 80.0405V81.4148C36.3816 82.0926 36.9401 82.6421 37.629 82.6421H62.3709C63.0598 82.6421 63.6182 82.0926 63.6182 81.4148V80.0405C63.6182 79.3627 63.0598 78.8132 62.3709 78.8132Z" fill="#DFEBFA"/>
<path d="M43.295 81.4148V80.0405C43.295 79.3627 43.8534 78.8132 44.5423 78.8132H37.629C36.9401 78.8132 36.3816 79.3627 36.3816 80.0405V81.4148C36.3816 82.0926 36.9401 82.6421 37.629 82.6421H44.5423C43.8534 82.6421 43.295 82.0926 43.295 81.4148Z" fill="#B1DBFC"/>
<path d="M77.4049 26.3579H22.5952C20.6127 26.3579 19 27.9446 19 29.8951V66.4696C19 68.42 20.6127 70.0067 22.5952 70.0067H77.4049C79.3873 70.0067 81 68.42 81 66.4696V29.8951C81 27.9446 79.3873 26.3579 77.4049 26.3579Z" fill="#695D67"/>
<path d="M23.1586 66.4697V29.8951C23.1586 27.9446 24.7713 26.3579 26.7538 26.3579H22.5952C20.6127 26.3579 19 27.9446 19 29.8951V66.4696C19 68.42 20.6127 70.0067 22.5952 70.0067H26.7536C24.7713 70.0069 23.1586 68.4201 23.1586 66.4697Z" fill="#554E56"/>
<path d="M22.8916 34.4934V34.7388V65.6691C22.8916 65.9502 23.1231 66.178 23.4089 66.178H76.5911C76.8768 66.178 77.1084 65.9502 77.1084 65.6691C77.1084 64.8445 77.1084 43.4799 77.1084 34.4934H22.8916Z" fill="#DFEBFA"/>
<path d="M26.6344 65.6691V34.7388V34.4934H22.8916V34.7388V65.6691C22.8916 65.9502 23.1231 66.178 23.4089 66.178H27.1516C26.8659 66.178 26.6344 65.9502 26.6344 65.6691Z" fill="#B1DBFC"/>
<path d="M76.591 30.1868H28.3848V34.7389H77.1083C77.1083 32.6083 77.1083 31.1243 77.1083 30.6957C77.1083 30.4146 76.8766 30.1868 76.591 30.1868Z" fill="#5CB3F8"/>
<path d="M28.5096 30.1868H23.4089C23.1233 30.1868 22.8916 30.4146 22.8916 30.6957V34.7389H28.5096V30.1868Z" fill="#FF656F"/>
<path d="M27.1514 30.1868H23.4089C23.1233 30.1868 22.8916 30.4146 22.8916 30.6957V34.7389H26.6341V30.6957C26.6341 30.4147 26.8658 30.1868 27.1514 30.1868Z" fill="#FF4756"/>
<path d="M50.8016 53.0146C50.1098 53.3557 49.2949 53.3557 48.6031 53.0146L38.929 48.2456V55.5265C39.0515 55.6292 39.1819 55.7241 39.327 55.801C42.4155 57.4396 45.9476 58.3721 49.7024 58.3721C53.4573 58.3721 56.9894 57.4396 60.0779 55.801C60.2229 55.7241 60.3534 55.6292 60.4759 55.5265V48.2456L50.8016 53.0146Z" fill="#6E60B8"/>
<path d="M43.4287 50.4638L38.929 48.2456V55.5265C39.0515 55.6292 39.1819 55.7241 39.327 55.801C40.6214 56.4877 41.9946 57.0485 43.4287 57.4705V50.4638Z" fill="#6353B2"/>
<path d="M60.0779 55.4327C56.9894 57.0712 53.4574 58.0038 49.7024 58.0038C45.9474 58.0038 42.4155 57.0712 39.327 55.4327C39.1819 55.3557 39.0515 55.2609 38.929 55.1582V57.6518C38.929 58.4546 39.3643 59.2054 40.0825 59.5865C42.9461 61.1057 46.2209 61.9704 49.7024 61.9704C53.184 61.9704 56.4587 61.1058 59.3223 59.5865C60.0406 59.2055 60.4759 58.4546 60.4759 57.6518V55.1582C60.3533 55.2609 60.2229 55.3557 60.0779 55.4327Z" fill="#9790CC"/>
<path d="M43.4287 57.1022C41.9947 56.6802 40.6215 56.1194 39.327 55.4327C39.1819 55.3557 39.0515 55.2609 38.929 55.1582V57.6518C38.929 58.4546 39.3643 59.2054 40.0825 59.5865C41.1447 60.1501 42.2638 60.6229 43.4286 60.9956V57.1022H43.4287Z" fill="#8479C2"/>
<path d="M64.7261 44.7318L50.8015 37.8676C50.1097 37.5265 49.2949 37.5265 48.6031 37.8676L34.6785 44.7318C33.8796 45.1257 33.8796 46.2474 34.6785 46.6413L48.6031 53.5054C49.2949 53.8465 50.1097 53.8465 50.8015 53.5054L64.7261 46.6413C65.5249 46.2474 65.5249 45.1257 64.7261 44.7318Z" fill="#9790CC"/>
<path d="M64.7261 44.7318L50.8015 37.8676C50.1097 37.5265 49.2949 37.5265 48.6031 37.8676L34.6785 44.7318C33.8796 45.1257 33.8796 46.2474 34.6785 46.6413L48.6031 53.5054C49.2949 53.8465 50.1097 53.8465 50.8015 53.5054L64.7261 46.6413C65.5249 46.2474 65.5249 45.1257 64.7261 44.7318Z" fill="#9790CC"/>
<path d="M53.1283 51.3666L38.7034 44.2558C38.2098 44.0124 38.013 43.5011 38.1082 43.0413L34.6785 44.732C33.8796 45.1259 33.8796 46.2476 34.6785 46.6415L48.6031 53.5056C49.2949 53.8467 50.1097 53.8467 50.8015 53.5056L54.6683 51.5995C54.149 51.6811 53.6099 51.604 53.1283 51.3666Z" fill="#8479C2"/>
<path d="M65.3255 56.509C64.8087 56.509 64.3899 56.0969 64.3899 55.5885V46.6072H50.9129C50.3962 46.6072 49.9773 46.195 49.9773 45.6866C49.9773 45.1782 50.3962 44.7661 50.9129 44.7661H65.3255C65.8422 44.7661 66.261 45.1782 66.261 45.6866V55.5885C66.261 56.0969 65.8422 56.509 65.3255 56.509Z" fill="#6353B2"/>
<path d="M67.8524 61.8127L66.7464 57.416C66.4103 57.8256 65.9019 58.0929 65.3253 58.0929C64.7485 58.0929 64.2403 57.8256 63.9041 57.4161L62.7982 61.8128C62.5743 62.6531 63.2186 63.4745 64.1014 63.4745H66.5491C67.432 63.4744 68.0763 62.6531 67.8524 61.8127Z" fill="#FEC458"/>
<path d="M65.0436 61.8128L66.0139 57.9555C65.8017 58.0423 65.5703 58.093 65.3253 58.093C64.7485 58.093 64.2403 57.8257 63.9041 57.4163L62.7982 61.8129C62.5743 62.6532 63.2186 63.4747 64.1014 63.4747H66.3468C65.4641 63.4746 64.8197 62.6532 65.0436 61.8128Z" fill="#F9AB49"/>
<path d="M49.7024 47.4913C50.7154 47.4913 51.5366 46.6834 51.5366 45.6867C51.5366 44.69 50.7154 43.8821 49.7024 43.8821C48.6894 43.8821 47.8682 44.69 47.8682 45.6867C47.8682 46.6834 48.6894 47.4913 49.7024 47.4913Z" fill="#8479C2"/>
<path d="M67.1594 56.5339C67.1594 57.1138 66.8812 57.6299 66.449 57.9601C66.1386 58.1972 64.5654 56.5339 64.5654 56.5339C64.5654 56.5339 66.1386 54.8704 66.449 55.1076C66.8814 55.4376 67.1594 55.9538 67.1594 56.5339Z" fill="#FFE181"/>
<path d="M65.7368 56.5338C65.7368 55.9538 66.016 55.4391 66.4482 55.109C66.1377 54.8719 65.7489 54.7292 65.3254 54.7292C64.3125 54.7292 63.4912 55.5371 63.4912 56.5339C63.4912 57.5306 64.3123 58.3385 65.3254 58.3385C65.7489 58.3385 66.1377 58.1959 66.4482 57.9588C66.016 57.6284 65.7368 57.1137 65.7368 56.5338Z" fill="#FEC458"/>
</g>
<defs>
<clipPath id="clip0">
<rect x="19" y="24" width="62" height="61" fill="white"/>
</clipPath>
</defs>
</svg>
