<svg width="100" height="100" viewBox="0 0 100 100" fill="none" xmlns="http://www.w3.org/2000/svg">
<circle cx="50" cy="50" r="50" transform="rotate(90 50 50)" fill="white"/>
<path d="M32.6309 19.6699H65.3691V57.0016H32.6309V19.6699Z" fill="#B46615"/>
<path d="M49.0002 19.6699H65.3694V57.0016H49.0002V19.6699Z" fill="#874208"/>
<path d="M30.9316 18V58.6715H67.0684V18H30.9316ZM41.844 55.3317H34.3301V41.6283H41.844V55.3317ZM41.844 38.2884H34.3301V31.4841H41.844V38.2884ZM41.844 28.1442H34.3301V21.3398H41.844V28.1442ZM52.7575 55.3317H45.2425V41.6283H52.7575V55.3317ZM52.7575 38.2884H45.2425V31.4841H52.7575V38.2884ZM52.7575 28.1442H45.2425V21.3398H52.7575V28.1442ZM63.6699 55.3317H56.156V41.6283H63.6699V55.3317ZM63.6699 38.2884H56.156V31.4841H63.6699V38.2884ZM63.6699 28.1442H56.156V21.3398H63.6699V28.1442Z" fill="#874208"/>
<path d="M49.0002 18V21.3398H52.7578V28.1442H49.0002V31.4841H52.7578V38.2884H49.0002V41.6283H52.7578V55.3317H49.0002V58.6715H67.0686V18L49.0002 18ZM63.6702 55.3317H56.1562V41.6283H63.6702V55.3317ZM63.6702 38.2884H56.1562V31.4841H63.6702V38.2884ZM63.6702 28.1442H56.1562V21.3398H63.6702V28.1442Z" fill="#682A00"/>
<path d="M71.0662 55.561V75H26.9341V55.561L28.7477 53.1797H69.2526L71.0662 55.561Z" fill="#FDBF00"/>
<path d="M71.0663 55.561V75H49.0002V53.1797H69.2527L71.0663 55.561Z" fill="#FF9F00"/>
<path d="M71.0662 45.2754V55.561C67.4004 55.561 67.4004 58.5624 63.7199 58.5624C60.0394 58.5624 60.0394 55.561 56.3589 55.561C52.6795 55.561 52.6795 58.5613 49.0001 58.5624H48.999C45.3185 58.5624 45.3185 55.561 41.6391 55.561C37.9586 55.561 37.9586 58.5624 34.2781 58.5624C30.5976 58.5624 30.5976 55.561 26.9341 55.561V45.2754C30.5976 45.2754 30.5976 48.2768 34.2781 48.2768C37.9586 48.2768 37.9586 45.2754 41.6391 45.2754C45.3185 45.2754 45.3185 48.2768 48.999 48.2768H49.0001C52.6795 48.2757 52.6795 45.2754 56.3589 45.2754C60.0394 45.2754 60.0394 48.2768 63.7199 48.2768C67.4004 48.2768 67.4004 45.2754 71.0662 45.2754Z" fill="#FFD400"/>
<path d="M71.0663 45.2754V55.561C67.4005 55.561 67.4005 58.5624 63.72 58.5624C60.0395 58.5624 60.0395 55.561 56.359 55.561C52.6796 55.561 52.6796 58.5613 49.0002 58.5624V48.2768C52.6796 48.2757 52.6796 45.2754 56.359 45.2754C60.0395 45.2754 60.0395 48.2768 63.72 48.2768C67.4005 48.2768 67.4005 45.2754 71.0663 45.2754Z" fill="#FDBF00"/>
</svg>
