<svg width="22" height="22" viewBox="0 0 22 22" fill="none" xmlns="http://www.w3.org/2000/svg">
<path d="M11 0C4.91944 0 0 4.91944 0 11C0 13.75 1.03889 16.3778 2.87222 18.425C3.20833 18.7611 3.54444 19.0972 3.91111 19.4028C8.00556 22.8556 13.9639 22.8556 18.0583 19.4028C18.425 19.0972 18.7611 18.7611 19.0972 18.425C23.1917 13.9333 22.8861 6.99722 18.3944 2.87222C16.3778 1.03889 13.75 0 11 0ZM11 20.7778C8.49444 20.7778 6.08056 19.8306 4.27778 18.0889C5.68333 14.3611 9.80833 12.4972 13.5361 13.9028C15.4611 14.6361 17.0194 16.1639 17.7222 18.0889C15.8889 19.8306 13.5056 20.7778 11 20.7778ZM7.94444 9.16667C7.94444 7.48611 9.31944 6.11111 11 6.11111C12.6806 6.11111 14.0556 7.48611 14.0556 9.16667C14.0556 10.8472 12.6806 12.2222 11 12.2222C9.31944 12.2222 7.94444 10.8472 7.94444 9.16667ZM18.6389 17.1111C17.6306 14.9722 15.7972 13.3222 13.5361 12.6194C15.4306 11.2139 15.8583 8.55556 14.4528 6.63056C13.0472 4.70556 10.3889 4.30833 8.46389 5.71389C6.53889 7.11944 6.14167 9.77778 7.54722 11.7028C7.79167 12.0694 8.12778 12.375 8.46389 12.6194C6.20278 13.3222 4.33889 14.9722 3.36111 17.1111C0 12.8944 0.672222 6.75278 4.88889 3.36111C9.10556 -0.0305557 15.2472 0.672222 18.6389 4.88889C21.4806 8.46389 21.4806 13.5361 18.6389 17.1111Z" fill="white"/>
</svg>
